<svg width="118" height="24" viewBox="0 0 118 24" fill="none" xmlns="http://www.w3.org/2000/svg">
<path d="M9.024 19.384C7.728 19.384 6.48 19.176 5.28 18.76C4.096 18.344 3.08 17.656 2.232 16.696C1.4 15.72 0.92 14.464 0.792 12.928H4.8C5.072 14.08 5.584 14.896 6.336 15.376C7.104 15.856 8 16.096 9.024 16.096C9.92 16.096 10.656 15.904 11.232 15.52C11.824 15.136 12.12 14.568 12.12 13.816C12.12 13.288 11.936 12.864 11.568 12.544C11.2 12.224 10.736 11.976 10.176 11.8C9.632 11.624 8.872 11.432 7.896 11.224C6.52 10.92 5.392 10.608 4.512 10.288C3.632 9.952 2.88 9.432 2.256 8.728C1.632 8.008 1.32 7.04 1.32 5.824C1.32 4.64 1.608 3.64 2.184 2.824C2.76 1.992 3.552 1.368 4.56 0.951999C5.568 0.535999 6.704 0.327999 7.968 0.327999C9.232 0.327999 10.4 0.551999 11.472 0.999999C12.56 1.432 13.464 2.096 14.184 2.992C14.904 3.872 15.36 4.96 15.552 6.256H11.568C11.344 5.408 10.904 4.76 10.248 4.312C9.608 3.848 8.816 3.616 7.872 3.616C7.088 3.616 6.44 3.776 5.928 4.096C5.432 4.416 5.184 4.88 5.184 5.488C5.184 5.968 5.352 6.352 5.688 6.64C6.04 6.928 6.472 7.16 6.984 7.336C7.512 7.496 8.256 7.688 9.216 7.912C10.624 8.216 11.784 8.544 12.696 8.896C13.608 9.232 14.392 9.784 15.048 10.552C15.704 11.304 16.032 12.328 16.032 13.624C16.032 14.792 15.752 15.808 15.192 16.672C14.632 17.536 13.824 18.208 12.768 18.688C11.728 19.152 10.48 19.384 9.024 19.384ZM23.0424 19.288C20.9144 19.288 19.4824 18.52 18.7464 16.984C18.5384 16.536 18.3944 16.048 18.3144 15.52C18.2504 14.992 18.2184 14.2 18.2184 13.144V5.464H21.8424V13.192C21.8424 13.864 21.8904 14.408 21.9864 14.824C22.0824 15.224 22.2424 15.544 22.4664 15.784C22.8024 16.152 23.3304 16.336 24.0504 16.336C24.9144 16.336 25.5544 16.08 25.9704 15.568C26.2104 15.296 26.3784 14.936 26.4744 14.488C26.5704 14.04 26.6184 13.448 26.6184 12.712V5.464H30.2664V19H26.6184V17.416C26.1544 18.072 25.6424 18.552 25.0824 18.856C24.5224 19.144 23.8424 19.288 23.0424 19.288ZM40.3521 5.176C41.5041 5.176 42.5281 5.48 43.4241 6.088C44.3201 6.68 45.0161 7.512 45.5121 8.584C46.0241 9.64 46.2801 10.856 46.2801 12.232C46.2801 13.608 46.0241 14.832 45.5121 15.904C45.0161 16.96 44.3201 17.792 43.4241 18.4C42.5281 18.992 41.5041 19.288 40.3521 19.288C39.5521 19.288 38.8641 19.152 38.2881 18.88C37.7121 18.608 37.1841 18.12 36.7041 17.416V23.776H33.0561V5.464H36.7041V7.048C37.1681 6.36 37.6881 5.88 38.2641 5.608C38.8561 5.32 39.5521 5.176 40.3521 5.176ZM39.4161 8.296C38.4561 8.296 37.6721 8.664 37.0641 9.4C36.4721 10.12 36.1761 11.064 36.1761 12.232C36.1761 13.4 36.4721 14.352 37.0641 15.088C37.6721 15.808 38.4561 16.168 39.4161 16.168C40.3761 16.168 41.1441 15.808 41.7201 15.088C42.3121 14.352 42.6081 13.4 42.6081 12.232C42.6081 11.064 42.3121 10.12 41.7201 9.4C41.1441 8.664 40.3761 8.296 39.4161 8.296ZM55.0037 19.288C53.6277 19.288 52.4037 18.992 51.3317 18.4C50.2757 17.792 49.4597 16.96 48.8837 15.904C48.3077 14.848 48.0197 13.656 48.0197 12.328C48.0197 11.112 48.2677 9.96 48.7637 8.872C49.2757 7.768 50.0437 6.88 51.0677 6.208C52.1077 5.52 53.3797 5.176 54.8837 5.176C56.1157 5.176 57.2517 5.432 58.2917 5.944C59.3477 6.44 60.1957 7.224 60.8357 8.296C61.4757 9.352 61.7957 10.68 61.7957 12.28V13H51.8117C51.8437 13.304 51.9157 13.608 52.0277 13.912C52.1397 14.2 52.2677 14.448 52.4117 14.656C53.0197 15.648 53.9397 16.144 55.1717 16.144C55.8277 16.144 56.3957 15.984 56.8757 15.664C57.3557 15.328 57.6997 14.904 57.9077 14.392H61.5797C61.1637 15.832 60.4037 17.008 59.2997 17.92C58.1957 18.832 56.7637 19.288 55.0037 19.288ZM58.0997 10.336C57.9877 9.808 57.7957 9.4 57.5237 9.112C56.9477 8.376 56.1157 8.008 55.0277 8.008C53.9397 8.008 53.0997 8.376 52.5077 9.112C52.2357 9.416 52.0437 9.824 51.9317 10.336H58.0997ZM64.017 19V5.464H67.665V7C68.129 6.328 68.649 5.856 69.225 5.584C69.817 5.312 70.513 5.176 71.313 5.176H71.817V8.656H71.049C70.025 8.656 69.241 8.912 68.697 9.424C68.329 9.776 68.065 10.24 67.905 10.816C67.745 11.376 67.665 12.112 67.665 13.024V19H64.017Z" fill="white"/>
<path d="M73.7938 19V0.688H79.2418C82.3298 0.688 84.6978 1.48 86.3458 3.064C88.0098 4.632 88.8418 6.888 88.8418 9.832C88.8418 12.792 88.0098 15.064 86.3458 16.648C84.6978 18.216 82.3218 19 79.2178 19H73.7938ZM79.1938 15.52C81.0658 15.52 82.4978 15.072 83.4898 14.176C84.4818 13.264 84.9778 11.816 84.9778 9.832C84.9778 7.944 84.4658 6.528 83.4418 5.584C82.4178 4.64 81.0018 4.168 79.1938 4.168H77.6578V15.52H79.1938ZM97.5193 19.288C96.1433 19.288 94.9193 18.992 93.8473 18.4C92.7913 17.792 91.9753 16.96 91.3993 15.904C90.8233 14.848 90.5353 13.656 90.5353 12.328C90.5353 11.112 90.7833 9.96 91.2793 8.872C91.7913 7.768 92.5593 6.88 93.5833 6.208C94.6233 5.52 95.8953 5.176 97.3993 5.176C98.6313 5.176 99.7673 5.432 100.807 5.944C101.863 6.44 102.711 7.224 103.351 8.296C103.991 9.352 104.311 10.68 104.311 12.28V13H94.3273C94.3593 13.304 94.4313 13.608 94.5433 13.912C94.6553 14.2 94.7833 14.448 94.9273 14.656C95.5353 15.648 96.4553 16.144 97.6873 16.144C98.3433 16.144 98.9113 15.984 99.3913 15.664C99.8713 15.328 100.215 14.904 100.423 14.392H104.095C103.679 15.832 102.919 17.008 101.815 17.92C100.711 18.832 99.2793 19.288 97.5193 19.288ZM100.615 10.336C100.503 9.808 100.311 9.4 100.039 9.112C99.4633 8.376 98.6313 8.008 97.5433 8.008C96.4553 8.008 95.6153 8.376 95.0233 9.112C94.7513 9.416 94.5593 9.824 94.4473 10.336H100.615ZM112.901 19H110.021L105.029 5.464H108.893L111.437 13.528L114.053 5.464H117.917L112.901 19Z" fill="#D95E3D"/>
</svg>
